<svg xmlns="http://www.w3.org/2000/svg" width="860" height="312" viewBox="0 0 860 312" font-family="-apple-system,BlinkMacSystemFont,'Segoe UI',Roboto,Helvetica,Arial,sans-serif" role="img" aria-label="SIMSHIFT heatsink leaderboard — temperature RMSE"><rect width="860" height="312" fill="#FFFFFF"/><text x="26" y="34" font-size="20" font-weight="700" fill="#14181F">SIMSHIFT heatsink leaderboard — temperature RMSE</text><text x="26" y="57" font-size="13.5" fill="#5B6672">Medium / out-of-distribution split (train fins 5–8 → test 10–12). Baselines include UDA; Kuber uses none.</text><text x="834" y="57" font-size="12" fill="#5B6672" text-anchor="end">↓ lower is better</text><circle cx="32" cy="76" r="6" fill="#1F4E79"/><text x="44" y="80" font-size="12.5" fill="#14181F">Kuber (ours, no UDA)</text><circle cx="202.0" cy="76" r="6" fill="#AEB8C2"/><text x="214.0" y="80" font-size="12.5" fill="#14181F">published baseline (with UDA)</text><line x1="288.0" y1="92" x2="288.0" y2="268" stroke="#E6EAEF" stroke-width="1"/><text x="288.0" y="288" font-size="11" fill="#5B6672" text-anchor="middle">0</text><line x1="383.2" y1="92" x2="383.2" y2="268" stroke="#E6EAEF" stroke-width="1"/><text x="383.2" y="288" font-size="11" fill="#5B6672" text-anchor="middle">4</text><line x1="478.4" y1="92" x2="478.4" y2="268" stroke="#E6EAEF" stroke-width="1"/><text x="478.4" y="288" font-size="11" fill="#5B6672" text-anchor="middle">7</text><line x1="573.6" y1="92" x2="573.6" y2="268" stroke="#E6EAEF" stroke-width="1"/><text x="573.6" y="288" font-size="11" fill="#5B6672" text-anchor="middle">11</text><line x1="668.8" y1="92" x2="668.8" y2="268" stroke="#E6EAEF" stroke-width="1"/><text x="668.8" y="288" font-size="11" fill="#5B6672" text-anchor="middle">15</text><line x1="764.0" y1="92" x2="764.0" y2="268" stroke="#E6EAEF" stroke-width="1"/><text x="764.0" y="288" font-size="11" fill="#5B6672" text-anchor="middle">18</text><text x="272" y="119.0" font-size="13.5" fill="#14181F" text-anchor="end">Kuber — SurfaceGeoTransolver</text><rect x="288" y="102.0" width="312.4" height="24" rx="5" fill="#1F4E79"/><text x="609.4" y="119.0" font-size="13.5" font-weight="700" fill="#14181F">12.14 K</text><text x="272" y="163.0" font-size="13.5" fill="#14181F" text-anchor="end">UPT  (prev. published best)</text><rect x="288" y="146.0" width="319.3" height="24" rx="5" fill="#AEB8C2"/><text x="616.3" y="163.0" font-size="13.5" font-weight="700" fill="#14181F">12.41 K</text><text x="272" y="207.0" font-size="13.5" fill="#14181F" text-anchor="end">Transolver</text><rect x="288" y="190.0" width="345.6" height="24" rx="5" fill="#AEB8C2"/><text x="642.6" y="207.0" font-size="13.5" font-weight="700" fill="#14181F">13.43 K</text><text x="272" y="251.0" font-size="13.5" fill="#14181F" text-anchor="end">PointNet</text><rect x="288" y="234.0" width="448.5" height="24" rx="5" fill="#AEB8C2"/><text x="745.5" y="251.0" font-size="13.5" font-weight="700" fill="#14181F">17.43 K</text></svg>