<svg xmlns="http://www.w3.org/2000/svg" width="860" height="312" viewBox="0 0 860 312" font-family="-apple-system,BlinkMacSystemFont,'Segoe UI',Roboto,Helvetica,Arial,sans-serif" role="img" aria-label="Stability proof — edge temperature-gradient fidelity"><rect width="860" height="312" fill="#FFFFFF"/><text x="26" y="34" font-size="20" font-weight="700" fill="#0F172A">Stability proof — edge temperature-gradient fidelity</text><text x="26" y="57" font-size="13.5" fill="#64748B">Predicted ÷ CFD |∇T| in the near-wall band (fin tips/corners). 1.0 = faithful; &gt;1 would be &#x27;explosion&#x27;.</text><text x="834" y="57" font-size="12" fill="#64748B" text-anchor="end">↓ explosion fraction = 0 · NaN/Inf = 0</text><circle cx="32" cy="76" r="6" fill="#16A34A"/><text x="44" y="80" font-size="12.5" fill="#0F172A">≤ 1.0 = faithful / no explosion</text><line x1="288.0" y1="92" x2="288.0" y2="268" stroke="#E2E8F0" stroke-width="1"/><text x="288.0" y="288" font-size="11" fill="#64748B" text-anchor="middle">0</text><line x1="383.2" y1="92" x2="383.2" y2="268" stroke="#E2E8F0" stroke-width="1"/><text x="383.2" y="288" font-size="11" fill="#64748B" text-anchor="middle">0</text><line x1="478.4" y1="92" x2="478.4" y2="268" stroke="#E2E8F0" stroke-width="1"/><text x="478.4" y="288" font-size="11" fill="#64748B" text-anchor="middle">0</text><line x1="573.6" y1="92" x2="573.6" y2="268" stroke="#E2E8F0" stroke-width="1"/><text x="573.6" y="288" font-size="11" fill="#64748B" text-anchor="middle">1</text><line x1="668.8" y1="92" x2="668.8" y2="268" stroke="#E2E8F0" stroke-width="1"/><text x="668.8" y="288" font-size="11" fill="#64748B" text-anchor="middle">1</text><line x1="764.0" y1="92" x2="764.0" y2="268" stroke="#E2E8F0" stroke-width="1"/><text x="764.0" y="288" font-size="11" fill="#64748B" text-anchor="middle">1</text><line x1="701.9" y1="86" x2="701.9" y2="268" stroke="#64748B" stroke-width="1.5" stroke-dasharray="5 4"/><text x="701.9" y="82" font-size="11.5" fill="#64748B" text-anchor="middle">1.0  faithful</text><text x="272" y="119.0" font-size="13.5" fill="#0F172A" text-anchor="end">Surface — in-distribution</text><rect x="288" y="102.0" width="401.1" height="24" rx="5" fill="#16A34A"/><text x="698.1" y="119.0" font-size="13.5" font-weight="700" fill="#0F172A">0.97</text><text x="272" y="163.0" font-size="13.5" fill="#0F172A" text-anchor="end">SDF — in-distribution</text><rect x="288" y="146.0" width="395.3" height="24" rx="5" fill="#16A34A"/><text x="692.3" y="163.0" font-size="13.5" font-weight="700" fill="#0F172A">0.95</text><text x="272" y="207.0" font-size="13.5" fill="#0F172A" text-anchor="end">SDF — out-of-distribution</text><rect x="288" y="190.0" width="370.0" height="24" rx="5" fill="#16A34A"/><text x="667.0" y="207.0" font-size="13.5" font-weight="700" fill="#0F172A">0.89</text><text x="272" y="251.0" font-size="13.5" fill="#0F172A" text-anchor="end">Surface — out-of-distribution</text><rect x="288" y="234.0" width="308.8" height="24" rx="5" fill="#16A34A"/><text x="605.8" y="251.0" font-size="13.5" font-weight="700" fill="#0F172A">0.75</text></svg>