<svg xmlns="http://www.w3.org/2000/svg" width="820" height="456" viewBox="0 0 820 456" font-family="-apple-system,BlinkMacSystemFont,'Segoe UI',Roboto,Helvetica,Arial,sans-serif" role="img" aria-label="Multi-geometry — one model, heatsinks + cold plates"><rect width="820" height="456" fill="#FFFFFF"/><text x="26" y="34" font-size="20" font-weight="700" fill="#14181F">Multi-geometry — one model, heatsinks + cold plates</text><text x="26" y="57" font-size="13.5" fill="#5B6672">A single SurfaceGeoTransolver on the Kuber corpus. Held-out temperature RMSE (K).</text><text x="794" y="57" font-size="12" fill="#5B6672" text-anchor="end">↓ lower is better</text><circle cx="32" cy="76" r="6" fill="#1F4E79"/><text x="44" y="80" font-size="12.5" fill="#14181F">SurfaceGeoTransolver</text><line x1="66" y1="396.0" x2="794" y2="396.0" stroke="#E6EAEF" stroke-width="1"/><text x="56" y="400.0" font-size="11" fill="#5B6672" text-anchor="end">0</text><line x1="66" y1="336.0" x2="794" y2="336.0" stroke="#E6EAEF" stroke-width="1"/><text x="56" y="340.0" font-size="11" fill="#5B6672" text-anchor="end">1</text><line x1="66" y1="276.0" x2="794" y2="276.0" stroke="#E6EAEF" stroke-width="1"/><text x="56" y="280.0" font-size="11" fill="#5B6672" text-anchor="end">2</text><line x1="66" y1="216.0" x2="794" y2="216.0" stroke="#E6EAEF" stroke-width="1"/><text x="56" y="220.0" font-size="11" fill="#5B6672" text-anchor="end">4</text><line x1="66" y1="156.0" x2="794" y2="156.0" stroke="#E6EAEF" stroke-width="1"/><text x="56" y="160.0" font-size="11" fill="#5B6672" text-anchor="end">5</text><line x1="66" y1="96.0" x2="794" y2="96.0" stroke="#E6EAEF" stroke-width="1"/><text x="56" y="100.0" font-size="11" fill="#5B6672" text-anchor="end">6</text><rect x="164.3" y="310.0" width="46.0" height="86.0" rx="4" fill="#1F4E79"/><text x="187.3" y="303.0" font-size="12" font-weight="700" fill="#14181F" text-anchor="middle">1.72</text><text x="187.3" y="420.0" font-size="13" fill="#14181F" text-anchor="middle">in-distribution</text><text x="187.3" y="436.0" font-size="11" fill="#5B6672" text-anchor="middle">(both classes)</text><rect x="407.0" y="240.5" width="46.0" height="155.5" rx="4" fill="#1F4E79"/><text x="430.0" y="233.5" font-size="12" font-weight="700" fill="#14181F" text-anchor="middle">3.11</text><text x="430.0" y="420.0" font-size="13" fill="#14181F" text-anchor="middle">cold plates</text><text x="430.0" y="436.0" font-size="11" fill="#5B6672" text-anchor="middle">(held-out)</text><rect x="649.7" y="139.5" width="46.0" height="256.5" rx="4" fill="#1F4E79"/><text x="672.7" y="132.5" font-size="12" font-weight="700" fill="#14181F" text-anchor="middle">5.13</text><text x="672.7" y="420.0" font-size="13" fill="#14181F" text-anchor="middle">heatsinks</text><text x="672.7" y="436.0" font-size="11" fill="#5B6672" text-anchor="middle">(held-out)</text></svg>