<svg xmlns="http://www.w3.org/2000/svg" width="820" height="456" viewBox="0 0 820 456" font-family="-apple-system,BlinkMacSystemFont,'Segoe UI',Roboto,Helvetica,Arial,sans-serif" role="img" aria-label="Generalization - the SOTA result is zero-shot"><rect width="820" height="456" fill="#FFFFFF"/><text x="26" y="34" font-size="20" font-weight="700" fill="#14181F">Generalization - the SOTA result is zero-shot</text><text x="26" y="57" font-size="13.5" fill="#5B6672">KuberNet temperature RMSE (K). Fin counts 10–14 never appear in training.</text><text x="794" y="57" font-size="12" fill="#5B6672" text-anchor="end">↓ lower is better</text><circle cx="32" cy="76" r="6" fill="#1F4E79"/><text x="44" y="80" font-size="12.5" fill="#14181F">KuberNet</text><line x1="66" y1="396.0" x2="794" y2="396.0" stroke="#E6EAEF" stroke-width="1"/><text x="56" y="400.0" font-size="11" fill="#5B6672" text-anchor="end">0</text><line x1="66" y1="336.0" x2="794" y2="336.0" stroke="#E6EAEF" stroke-width="1"/><text x="56" y="340.0" font-size="11" fill="#5B6672" text-anchor="end">3</text><line x1="66" y1="276.0" x2="794" y2="276.0" stroke="#E6EAEF" stroke-width="1"/><text x="56" y="280.0" font-size="11" fill="#5B6672" text-anchor="end">6</text><line x1="66" y1="216.0" x2="794" y2="216.0" stroke="#E6EAEF" stroke-width="1"/><text x="56" y="220.0" font-size="11" fill="#5B6672" text-anchor="end">8</text><line x1="66" y1="156.0" x2="794" y2="156.0" stroke="#E6EAEF" stroke-width="1"/><text x="56" y="160.0" font-size="11" fill="#5B6672" text-anchor="end">11</text><line x1="66" y1="96.0" x2="794" y2="96.0" stroke="#E6EAEF" stroke-width="1"/><text x="56" y="100.0" font-size="11" fill="#5B6672" text-anchor="end">14</text><rect x="225.0" y="311.1" width="46.0" height="84.9" rx="4" fill="#1F4E79"/><text x="248.0" y="304.1" font-size="12" font-weight="700" fill="#14181F" text-anchor="middle">3.96</text><text x="248.0" y="420.0" font-size="13" fill="#14181F" text-anchor="middle">in-distribution</text><text x="248.0" y="436.0" font-size="11" fill="#5B6672" text-anchor="middle">(trained fin range)</text><rect x="589.0" y="142.3" width="46.0" height="253.7" rx="4" fill="#1F4E79"/><text x="612.0" y="135.3" font-size="12" font-weight="700" fill="#14181F" text-anchor="middle">11.84</text><text x="612.0" y="420.0" font-size="13" fill="#14181F" text-anchor="middle">out-of-distribution</text><text x="612.0" y="436.0" font-size="11" fill="#5B6672" text-anchor="middle">(unseen fin counts)</text></svg>